<svg version="1.1" xmlns="http://www.w3.org/2000/svg" x="0" y="0" height="20" width="20" viewBox="0 0 473.7 473.7" xml:space="preserve" enable-background="new 0 0 473.677 473.677"><g fill="#c42126"><path d="M1.1 259H472.7V259H1.1z"/><path d="M25.6 129.7H448V129.7H25.6z"/><path d="M8.8 172.8H464.8V172.8H8.8z"/><path d="M101.8 431.4 371.9 431.4 371.9 431.3 101.8 431.3z"/><path d="M236.8 0c-4.6 0-9.2.2-13.8.4h27.7c-4.6-.2-9.2-.4-13.9-.4z"/><path d="M1 215.9H472.7V215.9H1z"/></g><path d="M306.8 86.6H420a238 238 0 0 0-46.3-43h-85c7 12.3 13.1 26.9 18.2 43z" fill="#e7e7e7"/><path d="M288.7 43.5h84.9a235.5 235.5 0 0 0-123-43h-7.2c21.5 2.6 31.3 18.5 45.3 43z" fill="#dc3027"/><path d="M464.8 172.8c-4.2-15-9.8-29.4-16.8-43H318c2.6 13.7 4.7 28.2 6.2 43h140.6z" fill="#e7e7e7"/><path d="M310.6 129.7H448a237 237 0 0 0-28-43H299.8c4.2 13.3 7.8 27.8 10.7 43z" fill="#dc3027"/><path d="M329.2 259h143.4a237.9 237.9 0 0 0 .1-43.1H329.2c.5 14.3.5 28.8 0 43z" fill="#e7e7e7"/><path d="M472.7 215.9c-1.3-14.8-4-29.2-7.9-43.1H318.2c1.4 14.1 2.4 28.5 2.9 43h151.6z" fill="#dc3027"/><path d="M315.5 345.2h132a235 235 0 0 0 17-43.1H321.8a509.8 509.8 0 0 1-6.3 43z" fill="#e7e7e7"/><path d="M464.5 302c4-13.8 6.7-28.2 8.1-43H324.7c-.5 14.5-1.5 29-3 43h142.8z" fill="#dc3027"/><path d="M371.9 431.3a238.2 238.2 0 0 0 47-43H308a220.1 220.1 0 0 1-18.6 43h82.6z" fill="#e7e7e7"/><g fill="#dc3027"><path d="M303.6 388.3H419c11-13.3 20.6-27.7 28.5-43.1H314.5a375 375 0 0 1-10.9 43zM228.3 473.5h-1.5 1.5zM236.8 473.7c50.2 0 96.8-15.7 135-42.3h-85.6c-15.2 26.2-25.3 42.3-49.4 42.3z"/></g><path d="M236.8 473.7z" fill="#c42126"/><path d="M296.5 43.5H100.1a238 238 0 0 0-46.4 43.1h261a225.1 225.1 0 0 0-18.2-43z" fill="#f3f4f5"/><path d="M100 43.5h196.5C282.5 19 265 3.1 243.4.5H223a235.5 235.5 0 0 0-123 43z" fill="#e73625"/><path d="M8.8 172.8h322.9a516.6 516.6 0 0 0-6.3-43H25.6c-7 13.6-12.6 28-16.8 43z" fill="#f3f4f5"/><path d="M53.7 86.6a237.1 237.1 0 0 0-28 43.1h299.7c-2.9-15.2-6.5-29.7-10.7-43h-261z" fill="#e73625"/><path d="M0 236.8c0 7.5.4 14.9 1 22.2h333.6a644 644 0 0 0 0-43.1H1c-.6 6.9-1 13.9-1 21z" fill="#f3f4f5"/><path d="M1 215.9h333.6c-.5-14.6-1.5-29-3-43.1H8.9a235.6 235.6 0 0 0-7.8 43z" fill="#e73625"/><path d="M331.5 302H9.2c4.3 15.1 10 29.5 17 43.2h299c2.6-13.9 4.8-28.3 6.3-43.1z" fill="#f3f4f5"/><path d="M9.2 302h322.3c1.5-14 2.6-28.5 3-43H1.2c1.3 14.8 4.1 29.2 8 43z" fill="#e73625"/><path d="M101.8 431.3h194a220 220 0 0 0 18.5-43H54.8a238.1 238.1 0 0 0 47 43z" fill="#f3f4f5"/><g fill="#e73625"><path d="M26.3 345.2c7.9 15.4 17.5 29.8 28.5 43h259.5c4.3-13.3 8-27.8 10.9-43h-299zM226.8 473.5h1.5l8.5.2c24.1 0 43.8-16.1 59-42.3h-194a235.6 235.6 0 0 0 125 42z"/></g><path d="M232 .1A236.8 236.8 0 0 0 1 215.5h231V.1z" fill="#283991"/><g fill="#efefef"><path d="M47.4 134.2 51 145.3 62.7 145.3 53.2 152.2 56.8 163.3 47.4 156.4 37.9 163.3 41.5 152.2 32.1 145.3 43.8 145.3z"/><path d="M47.4 173.4 51 184.6 62.7 184.6 53.2 191.4 56.8 202.5 47.4 195.7 37.9 202.5 41.5 191.4 32.1 184.6 43.8 184.6z"/><path d="M86.6 75.3 90.3 86.4 101.9 86.4 92.5 93.3 96.1 104.4 86.6 97.5 77.2 104.4 80.8 93.3 71.3 86.4 83 86.4z"/><path d="M86.6 114.6 90.3 125.7 101.9 125.7 92.5 132.5 96.1 143.7 86.6 136.8 77.2 143.7 80.8 132.5 71.3 125.7 83 125.7z"/><path d="M86.6 153.8 90.3 164.9 101.9 164.9 92.5 171.8 96.1 182.9 86.6 176 77.2 182.9 80.8 171.8 71.3 164.9 83 164.9z"/><path d="M17.6 183 14 171.7l9.4-6.9H11.7l-.2-.8c-1.3 4-2.5 8-3.5 12H8l9.5 6.8zM38 124l9.4-6.8 9.4 6.8-3.6-11 9.5-7H51l-3.6-11-3.6 11h-4.3l-2.4 3.7 4.4 3.2L38 124zM86.6 58.3l9.5 6.8-3.6-11 9.4-7h-6.7c-5.7 4.3-11.3 8.9-16.6 13.7L77.2 65l9.4-6.8zM116.5 45.5l9.4-6.9 9.5 7-3.7-11.2 9.5-6.9h-11.7L129 26c-4 2-7.9 4.2-11.7 6.4l2.8 2-3.6 11.1z"/><path d="M125.9 55.7 129.5 66.8 141.2 66.8 131.7 73.7 135.4 84.8 125.9 77.9 116.5 84.8 120.1 73.7 110.6 66.8 122.3 66.8z"/><path d="M125.9 94.9 129.5 106 141.2 106 131.7 112.9 135.4 124 125.9 117.2 116.5 124 120.1 112.9 110.6 106 122.3 106z"/><path d="M125.9 134.2 129.5 145.3 141.2 145.3 131.7 152.2 135.4 163.3 125.9 156.4 116.5 163.3 120.1 152.2 110.6 145.3 122.3 145.3z"/><path d="M125.9 173.4 129.5 184.6 141.2 184.6 131.7 191.4 135.4 202.5 125.9 195.7 116.5 202.5 120.1 191.4 110.6 184.6 122.3 184.6z"/><path d="M165.2 36 168.8 47.2 180.5 47.2 171 54 174.6 65.1 165.2 58.3 155.7 65.1 159.3 54 149.9 47.2 161.6 47.2z"/><path d="M165.2 75.3 168.8 86.4 180.5 86.4 171 93.3 174.6 104.4 165.2 97.5 155.7 104.4 159.3 93.3 149.9 86.4 161.6 86.4z"/><path d="M165.2 114.6 168.8 125.7 180.5 125.7 171 132.5 174.6 143.7 165.2 136.8 155.7 143.7 159.3 132.5 149.9 125.7 161.6 125.7z"/><path d="M165.2 153.8 168.8 164.9 180.5 164.9 171 171.8 174.6 182.9 165.2 176 155.7 182.9 159.3 171.8 149.9 164.9 161.6 164.9z"/><path d="M204.4 16.4 208 27.5 219.7 27.5 210.3 34.4 213.9 45.5 204.4 38.6 195 45.5 198.6 34.4 189.1 27.5 200.8 27.5z"/><path d="M204.4 55.7 208 66.8 219.7 66.8 210.3 73.7 213.9 84.8 204.4 77.9 195 84.8 198.6 73.7 189.1 66.8 200.8 66.8z"/><path d="M204.4 94.9 208 106 219.7 106 210.3 112.9 213.9 124 204.4 117.2 195 124 198.6 112.9 189.1 106 200.8 106z"/><path d="M204.4 134.2 208 145.3 219.7 145.3 210.3 152.2 213.9 163.3 204.4 156.4 195 163.3 198.6 152.2 189.1 145.3 200.8 145.3z"/><path d="M204.4 173.4 208 184.6 219.7 184.6 210.3 191.4 213.9 202.5 204.4 195.7 195 202.5 198.6 191.4 189.1 184.6 200.8 184.6z"/></g></svg>