<svg version="1.1" xmlns="http://www.w3.org/2000/svg" x="0" y="0" height="20" width="20" viewBox="0 0 473.7 473.7" xml:space="preserve" enable-background="new 0 0 473.684 473.684"><path d="m315.8 13.5-27.6 76.7c25.5 84.2 25.5 209.1 0 293.3l27.6 76.6a236.9 236.9 0 0 0 0-446.6z" fill="#e61e25"/><g fill="#e4e4e4"><path d="M315.8 90.2V13.5a236.4 236.4 0 0 0-79-13.5c36.6 0-14 123.8 79 90.2zM236.8 473.7c27.7 0 54.3-4.8 79-13.6v-76.6c-92.1-9.2-79 90.2-79 90.2z"/></g><path d="M0 236.8a236.9 236.9 0 0 0 158.8 223.7V13.2A236.9 236.9 0 0 0 0 236.8z" fill="#3757a6"/><path d="M315.8 90.2v293.3c25.5-84.2 25.5-209.1 0-293.3z" fill="#ef4f4e"/><path d="M315.8 383.5V90.2C299.7 36.9 273.4 0 236.8 0c-27.3 0-53.6 4.7-78 13.2v447.3a236.3 236.3 0 0 0 78 13.2c36.6 0 62.9-37 79-90.2z" fill="#f3f4f5"/></svg>